<svg width="125" height="156" viewBox="0 0 125 156" fill="none" xmlns="http://www.w3.org/2000/svg">
<g style="mix-blend-mode:hard-light">
<path d="M59.823 101.008L79.1504 110.663L59.823 121.237L43.2566 110.663L59.823 101.008Z" fill="#C9C5C5"/>
<path d="M11.9646 92.2732L59.823 64.6885L60.7434 101.008L12.885 128.133L11.9646 92.2732Z" fill="#B2B2B2"/>
<path d="M11.9644 91.3538L59.8228 119.858V155.718L12.4245 128.593L11.9644 91.3538Z" fill="#C7C5C5"/>
<path d="M59.823 64.2288L108.142 91.8135L105.381 125.835L60.2832 101.468L59.823 64.2288Z" fill="#C7C5C5"/>
<path d="M11.9644 90.894L59.8228 119.398L54.7609 121.237L4.60156 92.2733L11.9644 90.894Z" fill="#D9D9D9"/>
<path d="M59.823 64.6886L108.142 91.8136L118.726 72.5042L71.7876 44L59.823 64.6886Z" fill="#D9D9D9"/>
<path d="M12.4248 92.733L60.2832 64.6885L47.8584 44.4597L0 72.0445L12.4248 92.733Z" fill="#D9D9D9"/>
<path d="M59.823 119.858L107.681 91.8135L108.602 126.754L59.823 155.718V119.858Z" fill="#B2B2B2"/>
<path d="M59.823 119.858L107.681 91.8135L114.584 92.2732L64.8849 121.237L59.823 119.858Z" fill="#DDDDDD"/>
</g>
<g style="mix-blend-mode:hard-light">
<line x1="0.674269" y1="22.2615" x2="23.6743" y2="43.2615" stroke="#ADADAD" stroke-width="2"/>
</g>
<g style="mix-blend-mode:hard-light">
<line x1="59.9995" y1="0.969711" x2="60.9995" y2="33.9697" stroke="#ADADAD" stroke-width="2"/>
</g>
<g style="mix-blend-mode:hard-light">
<line x1="123.721" y1="23.6925" x2="102.945" y2="45.3341" stroke="#ADADAD" stroke-width="2"/>
</g>
</svg>
